<?xml version="1.0" encoding="utf-8"?>
<!-- Generator: Adobe Illustrator 24.1.0, SVG Export Plug-In . SVG Version: 6.00 Build 0)  -->
<svg version="1.1" xmlns="http://www.w3.org/2000/svg" xmlns:xlink="http://www.w3.org/1999/xlink" x="0px" y="0px"
	 viewBox="0 0 48 60" style="enable-background:new 0 0 48 60;" xml:space="preserve">
<circle id="background" style="fill:#FF6F00;" cx="24" cy="23" r="23"/>
<g id="female">
	<path style="fill:#F9F9F9;" d="M40.5,35.7c0.4,0.9,0.8,1.8,1.3,2.6c-0.2,0.3-0.3,0.6-0.5,0.8c-1.5,1.6-3.2,3-5.1,4.1
		c-1.5,0.9-3.2,1.7-4.9,2.2c-1.1,0.3-2.3,0.6-3.5,0.8c-0.6,0.1-1.3,0.1-1.9,0.2c-0.5,0-1.1,0.1-1.6,0.1c-1.8,0-3.6-0.2-5.3-0.7
		c-1.5-0.4-2.9-0.9-4.3-1.4c-1.6-0.7-3.1-1.6-4.4-2.7c-0.2-0.1-0.3-0.3-0.5-0.4c0.6-0.1,1.2-0.2,1.9-0.3c0.9-0.2,1.9-0.4,2.8-0.6
		c2.1-0.4,4.3-0.8,6.4-1.2c0.7-0.1,1.3-0.2,2-0.4c0.6-0.1,1.2-0.2,1.9-0.3c0.9-0.2,1.8-0.4,2.7-0.6c1.3-0.2,2.5-0.4,3.8-0.7
		c1.3-0.2,2.6-0.5,4-0.7c0.7-0.1,1.4-0.3,2.2-0.4c0.9-0.2,1.7-0.3,2.6-0.4C40.1,35.7,40.3,35.7,40.5,35.7L40.5,35.7z"/>
	<path style="fill:#FDE2D4;" d="M40.5,35.7c-0.2,0-0.4,0-0.6,0c-0.9,0.1-1.7,0.3-2.6,0.4c-0.7,0.1-1.4,0.2-2.2,0.4
		c-1.3,0.2-2.6,0.5-4,0.7c-1.3,0.2-2.5,0.4-3.8,0.7c-0.9,0.2-1.8,0.4-2.7,0.6c-0.6,0.1-1.2,0.2-1.9,0.3c-0.7,0.1-1.3,0.2-2,0.4
		c-2.1,0.4-4.3,0.8-6.4,1.2c-0.9,0.2-1.9,0.4-2.8,0.6c-0.6,0.1-1.2,0.2-1.9,0.3l-1.3-1.1c0.2-0.3,0.3-0.6,0.5-1
		c0.3-0.7,0.6-1.3,0.9-2c0-0.1,0-0.1,0-0.2c0.1,0,0.2-0.1,0.3-0.1c0.8-0.9,1.9-1.6,3-2.1c1.4-0.7,2.9-1.1,4.4-1.4
		c1.4-0.3,2.3-1.2,2.8-2.5c0.2-0.5,0.2-1,0.3-1.4c0.2,0.1,0.3,0.1,0.5,0.2c0.8,0.3,1.5,0.6,2.3,0.7c0.8,0.1,1.7,0.1,2.5,0
		c0.9-0.1,1.8-0.3,2.6-0.8c0,0.1,0,0.2,0,0.2c0.4,1.2,1.2,1.9,2.3,2.4c1.5,0.8,3.2,1.2,4.9,1.1c1.6,0.2,3.1,0.9,4.3,2
		C40.1,35.7,40.3,35.7,40.5,35.7z"/>
	<path style="fill:#302E40;" d="M20.6,29.6c-0.2,1.8-1.1,3.6-3.1,4c-2.8,0.5-5.5,1.7-7.6,3.7
		c2.3-5.9,3.5-12.2,3.6-18.5c0.1-2.2,0.6-4.4,1.8-6.3c3.1-5.4,10.8-7,15.9-3.5c5.5,3.7,5.2,9,4.7,14.9c0,0,0,0,0,0
		c-0.3,3.2,0,6.5-0.1,9.7c-2.7-0.1-6.4-0.9-7.2-3.8c1.2-0.6,2.1-1.4,3-2.4c0.8-1,0.5-2.3,0.7-3.5c1.2,0.2,1.5-2.4,0.6-3l-0.3-0.2
		c-0.1-0.9-0.4-1.7-0.8-2.5c-2.5,2.6-6.4,2.8-9.8,2.1c0.1-1.1,0.1-2.1,0.2-3.2c-0.7,0.7-1.4,1.4-2.1,2.1c-0.4,0.4-0.4,0.4-0.8,0
		c0.2-0.5,0.3-1,0.5-1.7C19,18,18.3,18.2,18,18.8c-0.2,0.7-0.3,1.4-0.5,2.1c-0.1,0.1-0.3,0.2-0.4,0.2c-0.6,0.8-0.3,1.9,0.3,2.7
		c0.3,0.7,0.1,1.6,0.3,2.4C17.9,27.8,19.5,28.6,20.6,29.6z"/>
	<path style="fill:#663904;" d="M35.6,26.6c0-0.8,0-1.7,0-2.5c0-0.1,0.1-0.1,0.1-0.2l0,2.4L35.6,26.6z"/>
	<path style="fill:#C6954B;" d="M35.7,26.3l0-2.4c0,0,0,0,0,0c0,0.7,0,1.5,0,2.2C35.8,26.1,35.7,26.2,35.7,26.3
		L35.7,26.3z"/>
	<path style="fill:#F9FBFA;" d="M20.6,29.6c-0.1-0.1-0.2-0.2-0.3-0.3c-0.9-0.6-1.6-1.3-2.3-2.1
		c-0.2-0.3-0.3-0.6-0.4-1c-0.1-0.6-0.1-1.3-0.1-1.9c0-0.2-0.1-0.3-0.2-0.5c0-0.1,0.1-0.3,0.1-0.4c0-0.5-0.1-0.9-0.1-1.4
		c0-0.1,0.1-0.3,0.2-0.4l0.3-0.1c1.4-0.1,2.9-0.2,4.3-0.2c1.4,0,2.7,0,4.1,0c0.3,0,0.7,0,1,0c1.4,0.1,2.9,0.1,4.3,0.2l0.5,0
		c0,0.3,0.1,0.7,0.1,1c0,0.4,0,0.9,0,1.3C32.1,24.6,32,25.3,32,26c0,0.5-0.2,1-0.5,1.4c-0.8,1-1.8,1.8-3,2.4
		c-0.8,0.4-1.7,0.7-2.6,0.8c-0.8,0-1.7,0.1-2.5,0c-0.8-0.1-1.5-0.5-2.3-0.7C20.9,29.7,20.8,29.6,20.6,29.6z M17.9,25
		c0,0.1,0,0.3,0.1,0.4c0,0.2,0,0.5,0,0.7c0,0.3-0.1,0.7,0.3,1c0.4,0.4,0.7,0.7,1.1,1.1c2,1.7,4.4,2.3,6.9,1.8
		c1.7-0.3,3.1-1.1,4.2-2.3c0.3-0.3,0.5-0.7,0.8-1.1l0-0.1l0-0.1c0-0.2,0-0.4,0-0.6c0-0.5,0.1-1,0.1-1.6c0-0.6,0.1-1.2,0.1-1.8
		c0-0.2-0.1-0.3-0.3-0.3c-1.9-0.1-3.8-0.2-5.7-0.2c-1.4,0-2.8,0.1-4.3,0.1c-1,0-2,0.1-3,0.1c-0.2,0-0.3,0-0.4,0L17.9,25
		C17.9,25,17.9,25,17.9,25z"/>
	<path style="fill:#FBE1D4;" d="M31.6,21.5c-1.4-0.1-2.9-0.2-4.3-0.2c-0.3,0-0.7,0-1,0c-1.4,0-2.7,0-4.1,0
		c-1.4,0-2.9,0.1-4.3,0.2c0-0.3-0.1-0.5-0.4-0.6c0.2-0.7,0.3-1.4,0.5-2.1c0.1-0.2,0.2-0.4,0.4-0.5c0.4-0.3,0.8-0.5,1.3-0.8
		c-0.2,0.6-0.3,1.1-0.5,1.7c0.5,0.4,0.4,0.3,0.8,0c0.7-0.7,1.4-1.4,2.1-2.1c-0.1,1-0.1,2.1-0.2,3.2c1.6,0.4,3.2,0.5,4.8,0.2
		c1.4-0.2,2.7-0.6,3.9-1.4c0.4-0.3,0.7-0.6,1.1-0.9c0.4,0.8,0.7,1.6,0.8,2.5L31.6,21.5z"/>
	<path style="fill:#FAE1D5;" d="M32.1,23.9c0-0.4,0-0.9,0-1.3c0-0.3-0.1-0.7-0.1-1l0.7-0.6c0.1,0.2,0.4,0.4,0.4,0.6
		c0.1,0.6,0.1,1.3-0.2,1.9C32.8,23.7,32.5,23.9,32.1,23.9z"/>
	<path style="fill:#F5DED2;" d="M17.6,21.6c-0.1,0.1-0.2,0.3-0.2,0.4c0,0.5,0.1,0.9,0.1,1.4c0,0.1-0.1,0.3-0.1,0.4
		c-0.5-0.7-0.7-1.5-0.5-2.3c0-0.1,0.2-0.3,0.2-0.4C17.4,21.1,17.5,21.3,17.6,21.6z"/>
	<polygon style="fill:#9BBFC3;" points="32.8,20.9 32,21.5 31.6,21.5 32.5,20.7 	"/>
	<path style="fill:#9ABDC4;" d="M17.6,21.6c0-0.3-0.1-0.5-0.5-0.4c0.1-0.1,0.3-0.2,0.4-0.2c0.3,0.1,0.4,0.3,0.4,0.6
		L17.6,21.6z"/>
	<path style="fill:#BDDBDD;" d="M31.4,25.7c0,0.2,0,0.4,0,0.6c0,0-0.1,0-0.1,0c-4.1,1.1-8.6,2.3-12.7,0.8
		c-0.1,0-0.2-0.1-0.3-0.1c-0.3-0.2-0.3-0.6-0.3-1c1.5-0.4,2.9-0.9,4.4-1.3l0-0.1L17.9,25v-2.9c4.5-0.2,8.9-0.3,13.4,0
		c0.2,0,0.3,0.1,0.3,0.3c-0.1,0.6-0.1,1.2-0.1,1.8c-2.1-0.1-4.2-0.2-6.2-0.4C27.2,24.6,29.4,25.2,31.4,25.7z"/>
	<path style="fill:#91C1C8;" d="M18.3,27.1c0.1,0,0.2,0,0.3,0.1c4.1,1.5,8.6,0.4,12.7-0.8c0,0,0.1,0,0.1,0
		c0,0,0,0.1,0,0.1c0,0,0,0.1,0,0.1C28.6,31.2,21.5,31.2,18.3,27.1z"/>
	<path style="fill:#92C0C8;" d="M31.4,25.7c-0.3-0.1-0.7-0.1-1-0.2c-1.6-0.5-3.3-1-4.9-1.5c-0.1,0-0.2-0.1-0.2-0.1
		c1.5,0.1,2.9,0.2,4.4,0.3c0.6,0,1.2,0.1,1.8,0.1C31.5,24.7,31.4,25.2,31.4,25.7z"/>
	<path style="fill:#92C1C7;" d="M17.9,25l4.4-0.3l0,0.1c-1.5,0.4-2.9,1-4.4,1.3c0-0.2,0-0.5,0-0.7
		C18,25.3,17.9,25.1,17.9,25L17.9,25z"/>
	<path style="fill:#BDDBDD;" d="M17.9,25c0,0.1,0,0.3,0.1,0.4C18,25.3,18,25.2,17.9,25z"/>
	<path style="fill:#BDDBDD;" d="M31.4,26.6C31.4,26.6,31.4,26.6,31.4,26.6L31.4,26.6z"/>
</g>
<g id="male">
	<path style="fill:#F9F9F8;" d="M31.8,28.6c4.1,2.2,7.9,4.8,12,6.8c-8,13.9-29.5,14.8-38.4,1.5
		c4.5-3.3,9.8-5.4,14.6-8.2C22.6,34.8,29.8,35.2,31.8,28.6z"/>
	<path style="fill:#302E3F;" d="M15.7,19.8c-1.5-2.7-0.8-8.4,2.3-9.8c5.1-6.6,11.5-3.7,16.3,1.5
		c1.7,2.1,0.5,4.9-0.1,7.2c-0.5-2.7-2.1-4.1-4.9-3.7c-3,0-5.9-0.7-8.8-1.5c-0.6,2-1.3,4-1.9,5.9l-0.2,0.2l-1,0.1
		C16.8,19.4,16.3,19.8,15.7,19.8z"/>
	<path style="fill:#FEE2D4;" d="M31.8,28.6c-2,6.4-9.3,5.9-11.8,0.1c0.2-0.7,0.1-1.5-0.1-2.2c3.2,2.3,7.9,2.2,11.1,0
		C31.3,27.3,31.6,27.9,31.8,28.6z"/>
	<path style="fill:#FBFBF9;" d="M31.1,26.6c-3.2,2.2-7.9,2.3-11.1,0c-1.2-0.5-1-1.8-1.1-2.8c-0.1-1.4-0.4-2.7-0.5-4.1
		l0.2-0.2c2,0,14.8-2,14.9-0.1l0.3,0.1C33.1,22.7,34.3,24.4,31.1,26.6z M32.9,23c0.1-1,0-2.2,0.1-3.3c0-0.4-0.1-0.5-0.5-0.4
		c-4.2,0.1-8.5,0.1-12.7,0.6c-0.8,0.1-0.8,0-0.7,0.7c0.2,1.4,0.1,3,0.6,4.3c3.4,4,10.6,3.6,13.2-1.2C32.9,23.6,32.9,23.3,32.9,23
		L32.9,23z"/>
	<path style="fill:#FCE2D2;" d="M18.4,20.4c0.4,1.7,0.4,3.5,0.6,5.3c-1.8-1.4-3.1-3.6-3.3-5.9c1.1-0.3,1.9-0.1,2.5,1
		C18.3,20.6,18.3,20.5,18.4,20.4z"/>
	<path style="fill:#AAB69B;" d="M33.8,19.5l-0.3-0.1V19c0.6-0.3,0.2-1.1,0.3-1.6c0,0.5,0.8,1.5,0.2,1.8
		C34,19.2,33.9,19.4,33.8,19.5z"/>
	<path style="fill:#FDE2D4;" d="M33.9,17.4c-0.1,0.5,0.2,1.3-0.3,1.6c-4.6-1.1-10.1,0.2-14.9,0.5
		c0.6-2,1.2-3.9,1.9-5.9c2.9,0.8,5.8,1.4,8.8,1.5C31.3,14.8,33.4,15.2,33.9,17.4z"/>
	<polygon style="fill:#93B8BF;" points="17.7,20 17.4,19.8 18.4,19.7 18.4,20 	"/>
	<path style="fill:#BDDBDD;" d="M19.3,22.9c-0.7-4.1,0-2.6,3.4-3.2c3.2-0.3,6.5-0.2,9.8-0.3c0.9,0,0.3,1.5,0.5,2.1
		c-2.1-0.2-4.2-0.1-6.3-0.1v0l6.2,1.6c0,0.3,0,0.5,0,0.8c-0.1-0.3-0.3-0.1-0.5,0c-4,1.5-8.5,2.5-12.7,1.2c-0.1-0.3-0.2-0.6-0.3-1
		c1.5-0.4,2.9-1.1,4.4-1.6C22.3,22.5,20.8,22.8,19.3,22.9z"/>
	<path style="fill:#91C1C8;" d="M19.7,25c4.2,1.2,8.7,0.2,12.7-1.2c0.1-0.1,0.4-0.3,0.5,0C30.4,28.6,23.2,29,19.7,25z
		"/>
	<path style="fill:#91C0C7;" d="M32.9,23l-6.2-1.6v0c2.1,0,4.2-0.1,6.3,0.1C33,21.8,32.9,22.7,32.9,23L32.9,23z"/>
	<path style="fill:#92C1C8;" d="M19.3,22.9c1.5-0.1,3-0.4,4.5-0.4c-1.5,0.5-2.9,1.1-4.4,1.6L19.3,22.9z"/>
	<path style="fill:#3C3947;" d="M17.7,20l0.7-0.1c0,0.3-0.1,0.5-0.2,0.8C18,20.5,17.9,20.3,17.7,20z"/>
	<path style="fill:#BDDBDD;" d="M32.9,23l0.1-1.2L32.9,23z"/>
</g>
<g id="import">
	<circle style="fill:#505096;" cx="40" cy="8.1" r="8.1"/>
	<path style="fill:#FFFFFF;" d="M40,9.7l-0.8-0.8h4.2c0.5,0,0.9-0.4,0.9-0.9c0-0.5-0.4-0.9-0.9-0.9h-4.2L40,6.4
		c0.3-0.3,0.3-0.9,0-1.2s-0.9-0.3-1.3,0l-2.4,2.3c-0.2,0.2-0.3,0.4-0.3,0.6c0,0.2,0.1,0.5,0.3,0.6l2.4,2.3c0.3,0.3,0.9,0.3,1.3,0
		C40.3,10.6,40.3,10.1,40,9.7z"/>
</g>
<g id="unknown">
	<circle style="fill:#B71C1C;" cx="40" cy="8.1" r="8.1"/>
	<path style="fill:#FFFFFF;" d="M40.5,9.4c-0.2-1.5,2.2-1.7,2.2-3.3c0-1.5-1.2-2.2-2.8-2.2c-1.2,0-2.2,0.5-2.9,1.3
		L38,6c0.5-0.6,1.1-0.9,1.8-0.9c0.9,0,1.4,0.4,1.4,1c0,1.1-2.3,1.5-2.1,3.2H40.5z M39.8,12.3c0.7,0,1.1-0.5,1.1-1.1
		s-0.5-1.1-1.1-1.1c-0.7,0-1.1,0.4-1.1,1.1S39.1,12.3,39.8,12.3z"/>
</g>
</svg>
