<?xml version="1.0" encoding="UTF-8"?>
<svg width="24px" height="24px" viewBox="0 0 24 24" version="1.1" xmlns="http://www.w3.org/2000/svg" xmlns:xlink="http://www.w3.org/1999/xlink">
    <!-- Generator: Sketch 63.1 (92452) - https://sketch.com -->
    <title>Icon/regular/timer</title>
    <desc>Created with Sketch.</desc>
    <g id="Icon/regular/timer" stroke="none" stroke-width="1" fill="none" fill-rule="evenodd">
        <g id="Group" transform="translate(3.000000, 3.000000)" fill-rule="nonzero">
            <path d="M15.2343216,2.48329049 L14.0336374,1.51156812 C12.7970353,0.673521851 11.3397948,0.133676093 9.76966933,0 L8.23033067,0 C6.67559863,0.133676093 5.2286203,0.663239075 3.99714937,1.49100257 L2.79646522,2.45244216 C1.07240593,4.09768638 0,6.41645244 0,8.98200514 C0,13.9537275 4.0381984,18 9,18 C13.9618016,18 18,13.9537275 18,8.98200514 C18,6.43187661 16.9378563,4.12339332 15.2343216,2.48329049 Z M9,16.4627249 C4.88483466,16.4627249 1.53933865,13.1105398 1.53933865,8.98714653 C1.53933865,4.86375321 4.88483466,1.50642674 9,1.50642674 C13.1151653,1.50642674 16.4606613,4.85861183 16.4606613,8.98200514 C16.4606613,13.1053985 13.1151653,16.4627249 9,16.4627249 Z" id="Shape" fill="#C4C9CF"></path>
            <path d="M8.99275712,3 L8.99275712,9 L4,12.3421751 C5.07822308,13.9442971 6.91067117,15 8.99275712,15 C12.3124095,15 15,12.3103448 15,9 C15,5.68965517 12.307098,3 8.99275712,3 Z" id="Path" fill="#9DA5B0"></path>
        </g>
    </g>
</svg>