<?xml version="1.0" encoding="UTF-8"?>
<svg width="24px" height="24px" viewBox="0 0 24 24" version="1.1" xmlns="http://www.w3.org/2000/svg" xmlns:xlink="http://www.w3.org/1999/xlink">
    <!-- Generator: Sketch 63.1 (92452) - https://sketch.com -->
    <title>Icon/regular/case</title>
    <desc>Created with Sketch.</desc>
    <g id="Icon/regular/case" stroke="none" stroke-width="1" fill="none" fill-rule="evenodd">
        <ellipse id="Oval" fill="#9DA5B0" fill-rule="nonzero" cx="7.41666667" cy="9.97894737" rx="2.20833333" ry="2.23157895"></ellipse>
        <path d="M17.9166667,7.70526316 L11.6666667,7.70526316 C11.125,7.70526316 10.6875,8.14736842 10.6875,8.69473684 L10.6875,12.9473684 L4.14583333,12.9473684 L4.14583333,6.56842105 C4.14583333,6.25263158 3.89583333,6 3.58333333,6 L2.66666667,6 C2.35416667,6 2.10416667,6.25263158 2.10416667,6.56842105 L2.10416667,17.2421053 C2.10416667,17.5578947 2.35416667,17.8105263 2.66666667,17.8105263 L3.58333333,17.8105263 C3.89583333,17.8105263 4.14583333,17.5578947 4.14583333,17.2421053 L4.14583333,15.0105263 L19.8541667,15.0105263 L19.8541667,17.2210526 C19.8541667,17.5368421 20.1041667,17.7894737 20.4166667,17.7894737 L21.3333333,17.7894737 C21.6458333,17.7894737 21.8958333,17.5368421 21.8958333,17.2210526 L21.8958333,11.7263158 C21.8958333,9.49473684 20.1041667,7.70526316 17.9166667,7.70526316 Z" id="Path" fill="#C4C9CF" fill-rule="nonzero"></path>
    </g>
</svg>