<?xml version="1.0" encoding="UTF-8"?>
<svg class="female" width="48px" height="48px" viewBox="0 0 48 48" version="1.1" xmlns="http://www.w3.org/2000/svg" xmlns:xlink="http://www.w3.org/1999/xlink">
    <!-- Generator: Sketch 63.1 (92452) - https://sketch.com -->
    <title>Female</title>
    <desc></desc>
    <g transform="scale(0.08 0.08)">
        <path d="M92.63,504.42 C77.72,490 64,474.63 52.19,457.51 C36.5414683,434.905658 24.1249855,410.22752 15.3,384.19 C4.36082762,352.067122 -0.76599238,318.251782 0.16,284.33 C0.808029092,262.61958 3.82593199,241.044928 9.16,219.99 C18.8415184,181.001287 36.6805262,144.508689 61.5,112.92 C86.1565767,81.1811336 117.181317,54.9524887 152.58,35.92 C171.784286,25.3849124 192.156405,17.1353787 213.28,11.34 C248,2.02 283.28,-1.37 319.28,2.44 C341.972465,4.69030263 364.335845,9.51121125 385.94,16.81 C417.955902,27.7756004 447.756826,44.3692964 473.94,65.81 C508.622489,93.9075472 536.360729,129.622327 555,170.18 C564.24365,190.425202 571.170897,211.64975 575.65,233.45 C580.934661,258.75286 582.68133,284.66683 580.84,310.45 C579.75,326.21 576.77,341.91 573.67,357.45 C568.240434,384.524155 558.208391,410.466762 544.01,434.15 C535.17,448.98 524.67,462.83 514.68,476.95 C513.61,478.47 510.97,478.89 509.06,479.82 C503.84,468.78 498.613333,457.746667 493.38,446.72 C491.13,445.93 488.27,445.72 486.72,444.25 C472.274526,429.968916 453.378453,421.059003 433.17,419 C433.13,390.18 433.086667,361.363333 433.04,332.55 L433.75,328.44 C434.262924,327.538384 434.624395,326.558696 434.82,325.54 C434.91,316.19 434.89,306.84 434.9,297.54 C435.13,291.37 435.46,285.21 435.58,279.04 C436.02,257.84 440.28,236.86 438.04,215.46 C433.851502,173.320822 410.971365,135.286263 375.706893,111.841202 C340.442422,88.3961407 296.517211,82.0161561 256.04,94.46 C222.11,104.91 195.88,125.38 177.09,155.38 C162.09,179.38 156,205.83 155.17,233.87 C153.96,275.12 150.54,316.15 142.59,356.74 C137.414286,382.449264 130.43367,407.761933 121.7,432.49 C117.886667,443.45 114.05,454.396667 110.19,465.33 C110.288823,465.971977 110.26507,466.626868 110.12,467.26 C106.39,475.6 102.65,483.93 98.79,492.21 C96.89,496.3 94.7,500.33 92.63,504.42 Z" id="Path" fill="#d5d5d5"></path>
        <path d="M493.42,446.679996 C498.646667,457.706667 503.873333,468.74 509.1,479.78 C507.1,483.29 505.61,487.33 502.91,490.23 C484.119953,510.331813 462.535497,527.625647 438.82,541.58 C419.55,553.01 399.37,562.72 377.64,568.58 C363.33,572.47 348.9,576.03 334.38,578.97 C326.52,580.56 318.38,580.62 310.3,581.2 C303.69,581.67 297.06,582.09 290.44,582.2 C268.122301,582.571227 245.861692,579.831563 224.3,574.06 C206.024279,569.212588 188.077586,563.200296 170.57,556.06 C150.713862,547.63548 132.160459,536.422625 115.47,522.76 C113.47,521.1 111.29,519.54 109.2,517.94 C116.93,516.49 124.68,515.12 132.39,513.57 C144.22,511.2 155.99,508.57 167.84,506.27 C194.42,501.143333 221.013333,496.096667 247.62,491.13 C255.98,489.56 264.38,488.13 272.76,486.67 C280.52,485.27 288.32,483.98 296.04,482.39 C307.4,480.06 318.66,477.25 330.04,475.09 C345.69,472.09 361.43,469.65 377.11,466.79 C393.59,463.79 410.03,460.53 426.5,457.46 C435.5,455.78 444.5,454.24 453.55,452.67 C464.48,450.77 475.4,448.86 486.35,447.07 C488.697644,446.809388 491.057935,446.679996 493.42,446.679996 L493.42,446.679996 Z" id="Path" fill="#F9F9F9"></path>
        <path d="M493.42,446.68 C491.058491,446.669225 488.698201,446.789409 486.35,447.04 C475.35,448.83 464.48,450.74 453.55,452.64 C444.55,454.21 435.55,455.75 426.5,457.43 C410.03,460.5 393.59,463.75 377.11,466.76 C361.43,469.62 345.69,472.08 330.04,475.06 C318.66,477.22 307.4,480.06 296.04,482.36 C288.32,483.95 280.52,485.24 272.76,486.64 C264.38,488.14 255.98,489.53 247.62,491.1 C221.02,496.106667 194.426667,501.153333 167.84,506.24 C155.99,508.52 144.22,511.17 132.39,513.54 C124.68,515.09 116.93,516.46 109.2,517.91 L92.63,504.41 C94.7,500.33 96.89,496.3 98.82,492.15 C102.68,483.87 106.42,475.54 110.15,467.2 C110.29507,466.566868 110.318823,465.911977 110.22,465.27 C111.45,464.68 113.02,464.4 113.88,463.46 C124.36,452.03 137.12,443.79 150.97,437.16 C168.45,428.78 186.97,423.44 205.84,419.37 C223.65,415.54 235.06,404.6 240.63,387.55 C242.53,381.74 243.43,375.6 244.79,369.61 C246.9,370.35 249.01,371.11 251.13,371.81 C260.7,374.99 270.08,379.44 279.91,380.97 C290.13,382.57 300.81,381.83 311.24,381.22 C322.519352,380.453923 333.485716,377.181095 343.34,371.64 C343.463083,372.590011 343.643411,373.531724 343.88,374.46 C348.51,389.11 359.3,398.09 372.36,404.71 C391.184437,414.298186 412.045309,419.200371 433.17,419 C453.390021,421.044693 472.301247,429.948037 486.76,444.23 C488.31,445.72 491.17,445.89 493.42,446.68 Z" id="Path" fill="#FDE2D4"></path>
        <path d="M244.79,369.61 C243.43,375.61 242.53,381.74 240.63,387.55 C235.06,404.6 223.63,415.55 205.84,419.37 C186.95,423.44 168.45,428.78 150.97,437.16 C137.12,443.79 124.36,452.03 113.88,463.46 C113.02,464.4 111.45,464.68 110.22,465.27 C114.06,454.323333 117.896667,443.376667 121.73,432.43 C130.46367,407.701933 137.444286,382.389264 142.62,356.68 C150.57,316.09 153.99,275.06 155.2,233.81 C156.03,205.81 162.09,179.29 177.12,155.32 C195.91,125.32 222.12,104.85 256.07,94.4 C296.547211,81.9561561 340.472422,88.3361407 375.736893,111.781202 C411.001365,135.226263 433.881502,173.260822 438.07,215.4 C440.31,236.8 436.07,257.78 435.61,278.98 C435.49,285.15 435.16,291.31 434.93,297.48 C434.686619,297.586375 434.47852,297.759791 434.33,297.98 C433.92,298.9 433.18,299.82 433.17,300.74 C433.07,311.34 433.09,321.94 433.07,332.54 C433.11,361.36 433.153333,390.176667 433.2,418.99 C412.076961,419.196561 391.216177,414.301258 372.39,404.72 C359.33,398.1 348.54,389.12 343.91,374.47 C343.673411,373.541724 343.493083,372.600011 343.37,371.65 C357.85,364.53 369.87,354.39 380.37,342.18 C384.546679,337.415663 386.914827,331.33423 387.06,325 C387.47,316.13 388.39,307.27 389.06,298.41 C394.22,299.24 397.45,296.88 399.53,292.32 C402.992941,284.90699 403.978179,276.576299 402.34,268.56 C401.8,265.88 398.89,263.69 397.06,261.27 L393.17,258.38 C391.51,247.25 388.61,236.53 383.27,226.98 C378.62,230.98 374.38,235.26 369.53,238.68 C355.01,248.93 338.41,253.68 321.03,256.07 C301.123098,258.776418 280.88769,257.786513 261.34,253.15 C262.26,239.79 263.16,226.66 264.05,213.64 C255.05,222.35 246.18,230.87 237.4,239.48 C232.73,244.06 232.8,244.14 227.11,239.74 C229.11,233.22 231.11,226.62 233.45,219.11 C227.37,222.87 222.03,225.9 217.02,229.41 C214.91,230.89 212.61,233.12 211.94,235.41 C209.49,243.95 207.69,252.67 205.64,261.32 C204.073333,262.313333 202.506667,263.313333 200.94,264.32 C199.94,265.9 198.36,267.37 198.02,269.09 C195.94,279.46 197.69,289.09 204.16,297.7 C204.84,299.62 205.96,301.5 206.16,303.46 C206.83,311.52 206.81,319.65 207.86,327.65 C208.361772,331.909655 209.877464,335.986936 212.28,339.54 C219.94,350.08 229.65,358.63 240.56,365.81 C242.061043,366.971504 243.474839,368.24158 244.79,369.61 Z" id="Path" fill="#302E40"></path>
        <path d="M433,332.53 C433,321.93 433,311.33 433.1,300.73 C433.1,299.81 433.85,298.89 434.25,297.97 L433.71,328.42 L433,332.53 Z" id="Path" fill="#663904"></path>
        <path d="M433.75,328.42 L434.29,297.97 C434.444728,297.751565 434.655445,297.578846 434.9,297.47 C434.9,306.82 434.9,316.17 434.82,325.47 C434.629691,326.505947 434.268071,327.502936 433.75,328.42 L433.75,328.42 Z" id="Path" fill="#C6954B"></path>
        <path d="M244.79,369.61 C243.471637,368.241204 242.054489,366.971119 240.55,365.81 C229.64,358.63 219.93,350.08 212.27,339.54 C209.867464,335.986936 208.351772,331.909655 207.85,327.65 C206.85,319.65 206.85,311.52 206.15,303.46 C205.99,301.46 204.87,299.62 204.15,297.69 C204.65,295.98 205.6,294.26 205.57,292.56 C205.48,286.65 204.87,280.75 204.84,274.84 C204.84,273.2 206.17,271.56 206.89,269.92 L210.64,269.19 C228.73,268.19 246.81,266.91 264.91,266.39 C282.05,265.91 299.21,266.26 316.36,266.25 C320.42,266.25 324.49,266.14 328.55,266.34 C346.47,267.21 364.4,268.18 382.32,269.11 L388.09,269.32 C388.53,273.64 389.23,277.96 389.35,282.32 C389.5,287.68 389.17,293.05 389.05,298.42 C388.35,307.28 387.43,316.14 387.05,325.01 C386.893274,331.354018 384.506984,337.44012 380.31,342.2 C369.83,354.41 357.81,364.55 343.31,371.67 C333.455716,377.211095 322.489352,380.483923 311.21,381.25 C300.78,381.86 290.1,382.6 279.88,381 C270.05,379.47 260.67,375 251.1,371.84 C249,371.11 246.9,370.35 244.79,369.61 Z M211.73,313 C211.95,314.67 212.17,316.34 212.4,318 C212.506667,320.873333 212.613333,323.736667 212.72,326.59 C212.61,330.94 212.02,335.43 216.23,338.52 C220.64,343.01 224.76,347.86 229.52,351.95 C254.67,373.55 283.9,380.44 316.18,374.84 C336.92,371.25 354.53,361.2 369.28,346.36 C373.28,342.36 376.09,337.22 379.45,332.6 L380.03,331.46 L379.97,329.79 C380.07,327.1 380.16,324.42 380.26,321.79 C380.62,315.31 380.976667,308.823333 381.33,302.33 C381.9,294.92 382.33,287.51 383.08,280.12 C383.38,277.03 382.08,276.12 379.27,276.01 C355.33,275.09 331.41,273.58 307.46,273.27 C289.68,273.04 271.87,274.36 254.08,274.94 C241.61,275.35 229.14,275.66 216.67,276.03 C214.79,276.09 212.91,276.2 211.83,276.25 L211.83,312.25 C211.750646,312.491682 211.716741,312.74597 211.73,313 Z" id="Shape" fill="#F9FBFA"></path>
        <path d="M382.36,269.11 C364.44,268.18 346.51,267.21 328.59,266.34 C324.53,266.14 320.46,266.25 316.4,266.25 C299.25,266.25 282.09,265.91 264.95,266.39 C246.85,266.91 228.77,268.22 210.68,269.19 C211.2,265.19 209.46,262.6 205.68,261.34 C207.73,252.69 209.53,243.97 211.98,235.43 C212.65,233.1 214.98,230.87 217.06,229.43 C222.06,225.92 227.41,222.89 233.49,219.13 C231.18,226.64 229.15,233.24 227.15,239.76 C232.84,244.16 232.77,244.08 237.44,239.5 C246.22,230.89 255.09,222.37 264.09,213.66 C263.2,226.66 262.3,239.81 261.38,253.17 C280.92769,257.806513 301.163098,258.796418 321.07,256.09 C338.45,253.71 355.07,248.95 369.57,238.7 C374.42,235.28 378.66,231 383.31,227 C388.65,236.55 391.55,247.27 393.21,258.4 L382.36,269.11 Z" id="Path" fill="#FBE1D4"></path>
        <path d="M389.09,298.39 C389.21,293.02 389.54,287.65 389.39,282.29 C389.27,277.96 388.57,273.64 388.13,269.29 L397.13,261.22 C398.96,263.64 401.87,265.83 402.41,268.51 C404.048179,276.526299 403.062941,284.85699 399.6,292.27 C397.48,296.86 394.25,299.22 389.09,298.39 Z" id="Path" fill="#FAE1D5"></path>
        <path d="M206.93,269.92 C206.21,271.56 204.88,273.2 204.88,274.84 C204.88,280.75 205.52,286.65 205.61,292.56 C205.61,294.26 204.69,295.98 204.19,297.69 C197.72,289.11 195.97,279.46 198.05,269.09 C198.39,267.37 199.96,265.9 200.97,264.32 C205.07,263.93 206.8,266.07 206.93,269.92 Z" id="Path" fill="#F5DED2"></path>
        <polygon id="Path" fill="#9BBFC3" points="397.09 261.25 388.09 269.32 382.32 269.11 393.16 258.36"></polygon>
        <path d="M206.93,269.92 C206.8,266.07 205.07,263.92 200.93,264.32 C202.49,263.32 204.056667,262.32 205.63,261.32 C209.42,262.58 211.16,265.16 210.63,269.17 L206.93,269.92 Z" id="Path" fill="#9ABDC4"></path>
        <path d="M380.26,321.79 C380.16,324.456667 380.066667,327.123333 379.98,329.79 C379.498832,329.725297 379.011168,329.725297 378.53,329.79 C361.37,334.19 344.37,339.36 327.02,342.79 C312.87,345.62 298.34,346.94 283.91,347.94 C274.45,348.6 264.91,347.61 255.35,347.14 C243.244735,346.537962 231.330712,343.876498 220.12,339.27 C218.851619,338.890778 217.548451,338.639524 216.23,338.52 C212.02,335.43 212.61,330.94 212.72,326.59 C213.676502,326.500009 214.625503,326.342956 215.56,326.12 C226.36,322.786667 237.156667,319.41 247.95,315.99 C254.36,313.99 260.75,311.88 267.15,309.82 L266.92,308.77 L211.83,312.17 L211.83,276.17 C212.91,276.12 214.83,276.01 216.67,275.95 C229.14,275.58 241.61,275.27 254.08,274.86 C271.87,274.28 289.68,272.96 307.46,273.19 C331.46,273.5 355.33,275.01 379.27,275.93 C382.12,276.04 383.38,276.93 383.08,280.04 C382.37,287.43 381.9,294.84 381.33,302.25 C373.75,301.9 366.16,301.64 358.58,301.17 C340.14,300.03 321.71,298.78 303.27,297.58 C304.010881,298.450427 304.991672,299.083419 306.09,299.4 C326.59,305.84 347.09,312.3 367.63,318.63 C371.76,320 376,320.78 380.26,321.79 Z" id="Path" fill="#BDDBDD"></path>
        <path d="M216.23,338.57 C217.548451,338.689524 218.851619,338.940778 220.12,339.32 C231.330712,343.926498 243.244735,346.587962 255.35,347.19 C264.87,347.66 274.45,348.65 283.91,347.99 C298.34,346.99 312.91,345.67 327.02,342.84 C344.37,339.38 361.37,334.21 378.53,329.84 C379.011168,329.775297 379.498832,329.775297 379.98,329.84 C379.98,330.4 379.98,330.96 379.98,331.52 C379.79,331.9 379.6,332.28 379.4,332.66 C376.04,337.28 373.21,342.42 369.23,346.42 C354.48,361.26 336.87,371.31 316.13,374.9 C283.85,380.5 254.62,373.61 229.47,352.01 C224.76,347.91 220.64,343.06 216.23,338.57 Z" id="Path" fill="#91C1C8"></path>
        <path d="M380.26,321.79 C376.04,320.79 371.76,319.99 367.63,318.71 C347.09,312.38 326.63,305.92 306.09,299.48 C304.991672,299.163419 304.010881,298.530427 303.27,297.66 C321.71,298.86 340.14,300.11 358.58,301.25 C366.16,301.72 373.75,301.98 381.33,302.33 C380.97,308.823333 380.613333,315.31 380.26,321.79 Z" id="Path" fill="#92C0C8"></path>
        <path d="M211.83,312.22 L266.92,308.82 L267.15,309.87 C260.75,311.93 254.36,314.02 247.95,316.04 C237.156667,319.446667 226.36,322.823333 215.56,326.17 C214.625503,326.392956 213.676502,326.550009 212.72,326.64 C212.62,323.78 212.513333,320.916667 212.4,318.05 C212.18,316.38 211.95,314.71 211.73,313.05 C211.706254,312.769407 211.740288,312.486924 211.83,312.22 L211.83,312.22 Z" id="Path" fill="#92C1C7"></path>
        <path d="M211.73,313 C211.95,314.67 212.18,316.34 212.4,318 C212.17,316.38 212,314.71 211.73,313 Z" id="Path" fill="#BDDBDD"></path>
        <path d="M379.45,332.65 C379.65,332.27 379.84,331.89 380.03,331.51 L379.45,332.65 Z" id="Path" fill="#BDDBDD"></path>
    </g>
</svg>