<?xml version="1.0" encoding="UTF-8"?>
<svg class="female" width="48px" height="48px" viewBox="0 0 48 48" version="1.1" xmlns="http://www.w3.org/2000/svg" xmlns:xlink="http://www.w3.org/1999/xlink">
    <!-- Generator: Sketch 63.1 (92452) - https://sketch.com -->
    <title>Female</title>
    <desc>Created with Sketch.</desc>
    <g id="Home" stroke="none" stroke-width="1" fill="none" fill-rule="evenodd">
        <g id="Version-2.0-Copy-11" transform="translate(-100.000000, -285.000000)" fill="#A2A2A2">
            <path d="M124,285 C137.254834,285 148,295.745166 148,309 L148,309.044623 C148,318.505558 142.525648,326.68789 134.571754,330.596809 C133.55399,327.67215 131.260949,325.265124 128.209239,324.224307 C127.828804,324.129156 127.543478,323.748552 127.543478,323.272798 C127.543478,322.892194 127.828804,322.511591 128.209239,322.41644 C130.206522,321.845535 132.013587,320.798875 133.440217,319.276461 C133.725543,318.991008 134.201087,318.895857 134.581522,319.086159 C135.342391,319.466763 136.19837,319.752215 137.149457,319.752215 C139.146739,319.752215 141.048913,318.800707 142,318.0395 C139.527174,317.468594 137.720109,314.518917 137.339674,311.854693 L137.339674,311.56924 L137.339674,311.56924 C137.434783,311.093485 137.434783,310.52258 137.434783,309.951675 C137.434783,302.815359 131.633152,297.011156 124.5,297.011156 C117.366848,297.011156 111.565217,302.815359 111.565217,309.951675 C111.565217,310.52258 111.565217,310.998335 111.660326,311.56924 L111.660326,311.854693 L111.660326,311.854693 C111.279891,314.518917 109.472826,317.468594 107,318.0395 C107.951087,318.800707 109.853261,319.752215 111.850543,319.752215 C112.80163,319.752215 113.657609,319.561914 114.418478,319.086159 C114.798913,318.895857 115.274457,318.991008 115.559783,319.276461 C117.081522,320.703724 118.888587,321.750384 120.790761,322.41644 C121.171196,322.511591 121.456522,322.892194 121.456522,323.272798 C121.456522,323.653401 121.171196,324.034005 120.790761,324.224307 C117.59918,325.312828 115.237407,327.895665 114.296114,331.001996 C105.875637,327.275414 100,318.846182 100,309.044623 L100,309 C100,295.745166 110.745166,285 124,285 Z" id="Combined-Shape-Copy-8"></path>
        </g>
    </g>
</svg>