<?xml version="1.0" encoding="UTF-8"?>
<svg width="24px" height="24px" viewBox="0 0 24 24" version="1.1" xmlns="http://www.w3.org/2000/svg" xmlns:xlink="http://www.w3.org/1999/xlink">
    <!-- Generator: Sketch 63.1 (92452) - https://sketch.com -->
    <title>Icon/regular/home</title>
    <desc>Created with Sketch.</desc>
    <g id="Icon/regular/home" stroke="none" stroke-width="1" fill="none" fill-rule="evenodd">
        <path d="M17,2 L20,2 C20.5522847,2 21,2.44771525 21,3 L21,6.70833547 C21,7.26062022 20.5522847,7.70833547 20,7.70833547 C19.7837866,7.70833547 19.573397,7.63825916 19.4003668,7.50861044 L16.4003668,5.26075859 C16.1483453,5.07192292 16,4.77540225 16,4.46048361 L16,3 C16,2.44771525 16.4477153,2 17,2 Z" id="Rectangle" fill="#9DA5B0"></path>
        <path d="M17.136486,21 L6.86351403,21 C5.57170319,21 4.52595156,19.9631512 4.52595156,18.682338 L4.52595156,11.3939009 L2.7727797,11.3939009 C2.43444829,11.3939009 2.15763168,11.180432 2.03460208,10.8754765 C1.94232987,10.570521 2.03460208,10.2350699 2.31141869,10.021601 L11.538639,3.16010165 C11.8154556,2.94663278 12.1845444,2.94663278 12.461361,3.16010165 L21.6885813,10.021601 C21.9653979,10.2045743 22.0576701,10.570521 21.9653979,10.8754765 C21.8423683,11.180432 21.5655517,11.3939009 21.2272203,11.3939009 L19.4740484,11.3939009 L19.4740484,18.682338 C19.4740484,19.9631512 18.4282968,21 17.136486,21 Z" id="Path" fill="#C4C9CF" fill-rule="nonzero"></path>
    </g>
</svg>