<?xml version="1.0" encoding="UTF-8"?>
<svg class="imported" width="46px" height="46px" viewBox="0 0 46 46" version="1.1" xmlns="http://www.w3.org/2000/svg" xmlns:xlink="http://www.w3.org/1999/xlink">
    <!-- Generator: Sketch 63.1 (92452) - https://sketch.com -->
    <title>Imported</title>
    <desc>Created with Sketch.</desc>
    <g id="Home" stroke="none" stroke-width="1" fill="none" fill-rule="evenodd">
        <g id="Version-2.0-Copy-11" transform="translate(-284.000000, -370.000000)">
            <g id="Group-36-Copy-7" transform="translate(284.000000, 370.000000)">
                <circle id="Combined-Shape" fill="#505096" cx="23" cy="23" r="23"></circle>
                <path d="M23.0507812,27.7941889 L20.625,25.440678 L32.484375,25.440678 C33.921875,25.440678 35,24.3075061 35,23 C35,21.6924939 33.8320312,20.559322 32.484375,20.559322 L20.625,20.559322 L23.0507812,18.2058111 C24.0390625,17.2469734 24.0390625,15.6779661 23.0507812,14.7191283 C22.0625,13.7602906 20.4453125,13.7602906 19.4570312,14.7191283 L12.71875,21.2566586 C12.2695312,21.6924939 12,22.3026634 12,23 C12,23.6973366 12.2695312,24.3075061 12.71875,24.7433414 L19.4570312,31.2808717 C20.4453125,32.2397094 22.0625,32.2397094 23.0507812,31.2808717 C24.0390625,30.3220339 24.0390625,28.7530266 23.0507812,27.7941889 Z" id="Path" fill="#FFFFFF"></path>
            </g>
        </g>
    </g>
</svg>