<?xml version="1.0" encoding="UTF-8"?>
<svg class="male" width="48px" height="48px" viewBox="0 0 48 48" version="1.1" xmlns="http://www.w3.org/2000/svg" xmlns:xlink="http://www.w3.org/1999/xlink">
    <!-- Generator: Sketch 63.1 (92452) - https://sketch.com -->
    <title>Male</title>
    <desc></desc>
    <g id="Home" stroke="none" stroke-width="1" fill="none" fill-rule="evenodd">
        <g id="Version-2.0-Copy-11" transform="translate(-36.000000, -285.000000)" fill="#A2A2A2">
            <path d="M60,285 C73.254834,285 84,295.745166 84,309 L84,309.005297 C84,318.83969 78.0849328,327.292545 69.6184398,331.000221 C68.7067973,327.849019 66.3614778,325.224525 63.1825139,324.123931 C63.1111356,324.105809 63.0431475,324.077358 62.979838,324.039886 L62.979838,324.039886 L63.0209151,323.922306 C66.0305402,321.367381 68.3515598,318.344779 69.2658763,315.357482 C69.9135171,315.121642 70.5230614,314.492738 70.8278336,313.627994 C71.2087988,312.448797 70.9421232,311.269601 70.1801928,310.758616 C70.2944823,310.011791 70.3706754,309.264967 70.4468684,308.478836 C71.1707023,301.246431 68.2372702,297.001324 61.5322827,297.001324 C61.0370279,297.001324 60.5036766,297.040631 59.9703254,297.079937 C58.0713604,297.261352 56.7891532,298.280066 56.6031271,298.435718 L56.5797351,298.455666 C56.0844803,298.337747 55.5892255,298.29844 55.1320673,298.29844 C50.7509675,298.29844 48.9223345,303.329678 49.5318788,308.518143 C49.6461684,309.304273 49.7223614,310.051098 49.836651,310.758616 C49.0747206,311.269601 48.7699484,312.488104 49.1890102,313.6673 C49.4937823,314.532044 50.1033266,315.200256 50.789064,315.396788 C51.6649683,318.258584 53.5926293,321.116706 56.4002815,323.598107 C56.284088,323.816103 56.0881262,324.00629 55.8564471,324.123931 C52.8088281,325.179052 50.5273894,327.634748 49.5394816,330.611183 C41.5259094,326.725417 36,318.51068 36,309.005297 L36,309 C36,295.745166 46.745166,285 60,285 Z" id="Combined-Shape-Copy-7"></path>
        </g>
    </g>
</svg>