<?xml version="1.0" encoding="UTF-8"?>
<svg class="male" width="48px" height="48px" viewBox="0 0 48 48" version="1.1" xmlns="http://www.w3.org/2000/svg" xmlns:xlink="http://www.w3.org/1999/xlink">
    <!-- Generator: Sketch 63.1 (92452) - https://sketch.com -->
    <title>Male</title>
    <desc></desc>
    <g id="Home" stroke="none" stroke-width="1" fill="none" fill-rule="evenodd">
        <g transform="scale(0.08 0.08)">
            <path d="M541.36,451.66 L540.22,453.66 C538.81,453.43 537.22,453.58 536.02,452.93 C499.673333,432.503333 463.34,412.033333 427.02,391.52 C414.64,384.52 402.16,377.79 389.72,370.93 C386.72,362.43 383.72,353.926667 380.72,345.42 C386,340.65 391.8,336.33 396.41,330.99 C403.27,322.99 411.86,315.83 411.09,303.52 C410.64,296.52 410.98,289.44 411.14,282.4 C411.2627,279.634427 411.580153,276.880939 412.09,274.16 C413.09,268.23 414.18,262.31 415.24,256.39 C416.14,255.24 416.85,253.39 417.99,253.06 C421.73,252.06 420.99,249.72 420.27,247.18 C421.18,244.77 422.41,242.44 422.94,239.95 C425.63,227.57 428.09,215.15 430.72,202.76 C434.25,186.14 432.5,170.76 421.6,156.88 C413.165622,146.308027 403.335986,136.929168 392.38,129 C374.38,115.65 354.73,105 334.32,95.87 C310.92,85.4 287.71,86.54 264.95,98.33 C248.15,107.04 234.49,119.45 222.46,133.86 C221.14,135.45 219.65,137.33 217.84,138.02 C202.53,143.84 194.51,156.17 188.94,170.45 C180.27,192.74 178.72,215.98 181.3,239.52 C182.1,246.91 183.39,254.47 188.8,260.37 C189.98,277.72 196.63,293.14 205.87,307.53 C212.38,317.66 220.05,326.85 230.1,333.77 C232.463003,338.965948 236.600547,343.149584 241.77,345.57 C244.441532,354.359575 244.769024,363.694822 242.72,372.65 C231.48,378.31 220.19,383.89 209.01,389.65 C175.23,407.07 141.4,424.4 107.77,442.1 C91.23,450.85 73.54,457.77 60,471.42 C41.1393637,446.596383 26.3757655,418.912526 16.27,389.42 C8.74889774,367.128616 3.83286098,344.0417 1.62,320.62 C-0.38,300.57 -0.46,280.62 2.36,260.82 C4.91,242.97 9.06,225.27 13.69,207.82 C20.96,180.47 33.61,155.43 49.22,131.91 C69.5539933,101.237005 95.5028698,74.6841925 125.7,53.65 C149.23035,37.1759982 175.034477,24.2166675 202.3,15.18 C238.57,3.1 276,-1.14 314,1.35 C332.10098,2.65017551 350.037911,5.66366037 367.57,10.35 C440.987212,29.3116341 504.146059,76.095301 543.68,140.8 C573.83532,189.482349 588.805206,246.04415 586.68,303.27 C585.927962,325.492625 582.701377,347.562199 577.06,369.07 C569.89892,396.618469 558.675867,422.947143 543.76,447.19 C543.427106,447.91926 543.178822,448.684243 543.02,449.47 L541.36,451.66 Z" id="Path" fill="#d5d5d5"></path>
            <path d="M389.73,370.9 C402.17,377.76 414.65,384.53 427.03,391.49 C463.37,411.936667 499.703333,432.406667 536.03,452.9 C537.2,453.55 538.82,453.4 540.23,453.63 C538.782355,456.393144 537.193591,459.080025 535.47,461.68 C523.12,478.4 510.08,494.6 494.53,508.43 C483.212241,518.737247 471.222532,528.281577 458.64,537 C445.198782,545.942134 431.185351,553.992757 416.69,561.1 C406.12,566.36 394.69,570.1 383.42,573.7 C373.42,576.9 363.22,579.3 353,581.56 C345.13,583.29 337,583.81 329.18,585.71 C324.33,586.89 319.73,587.63 314.87,586.52 C313.205636,586.051729 311.501834,585.737078 309.78,585.58 C293.78,585.51 277.78,585.58 261.78,585.58 C251.26,584.1 240.7,582.87 230.24,581.05 C222.294388,579.727069 214.441651,577.896656 206.73,575.57 C199.36,573.28 192.28,570.01 185.14,567.01 C176.83,563.53 168.23,560.54 160.41,556.16 C147.27,548.81 134.41,540.94 121.91,532.5 C112.34851,526.089237 103.295061,518.951455 94.83,511.15 C84.72,501.76 75.48,491.41 66.13,481.23 C63.6,478.46 62.06,474.78 60.06,471.52 C73.59,457.87 91.28,450.95 107.82,442.24 C141.45,424.54 175.28,407.24 209.06,389.79 C220.24,384.02 231.53,378.44 242.77,372.79 C243.940936,373.892909 244.984155,375.123975 245.88,376.46 C254.43,392.83 264.6,407.7 280.24,418.41 C290.68,425.55 302.05,429.71 314.39,429.84 C322.53,429.93 330.91,428.19 338.83,426.01 C355.83,421.34 369.27,411.33 378.12,396.01 C382.66,388 385.89,379.27 389.73,370.9 Z" id="Path" fill="#F9F9F8"></path>
            <path d="M261.73,585.48 C277.73,585.48 293.73,585.48 309.73,585.48 C311.451834,585.637078 313.155636,585.951729 314.82,586.42 C313.322207,586.889364 311.781191,587.207618 310.22,587.37 C298.9,587.45 287.59,587.6 276.28,587.37 C271.45,587.25 266.6,586.14 261.73,585.48 Z" id="Path" fill="#F9F1E5"></path>
            <path d="M541.36,451.66 L543.05,449.47 L541.36,451.66 Z" id="Path" fill="#F9F9F8"></path>
            <path d="M188.8,260.4 C183.39,254.5 182.1,246.94 181.3,239.55 C178.72,216.01 180.3,192.77 188.94,170.48 C194.51,156.2 202.53,143.87 217.84,138.05 C219.65,137.36 221.14,135.48 222.46,133.89 C234.46,119.48 248.15,107.07 264.95,98.36 C287.71,86.57 310.95,85.43 334.32,95.9 C354.73,105.04 374.37,115.68 392.38,129.03 C403.332064,136.940716 413.161515,146.299214 421.6,156.85 C432.5,170.77 434.25,186.11 430.72,202.73 C428.09,215.12 425.63,227.54 422.94,239.92 C422.41,242.41 421.18,244.74 420.27,247.15 C419.58,245.41 418.73,243.71 418.21,241.91 C417.21,238.34 416.35,234.71 415.44,231.11 C410.81,214.67 400.73,203.77 383.37,201.51 C375.37,200.51 367.05,201.36 358.88,201.24 C330.59,200.83 302.94,195.83 275.52,189.32 C266.68,187.22 257.9,184.9 248.77,182.6 C240.86,207.6 233.09,232.22 225.33,256.8 L222.25,259.6 L209.65,260.91 C204.73,257.76 199.65,257.86 194.34,259.91 C192.66,260.5 190.65,260.25 188.8,260.4 Z" id="Path" fill="#302E3F"></path>
            <path d="M389.73,370.9 C385.89,379.27 382.66,387.99 378.07,395.9 C369.22,411.19 355.75,421.2 338.78,425.9 C330.86,428.08 322.48,429.82 314.34,429.73 C302,429.6 290.63,425.44 280.19,418.3 C264.55,407.59 254.38,392.72 245.83,376.35 C244.934155,375.013975 243.890936,373.782909 242.72,372.68 C244.769024,363.724822 244.441532,354.389575 241.77,345.6 C243.164413,346.762047 244.616237,347.853418 246.12,348.87 C256.897334,355.509573 268.736708,360.245322 281.12,362.87 C294.71,365.71 308.61,367.19 322.46,365.87 C332.54,364.87 342.91,363.54 352.36,360.16 C362.36,356.6 371.36,350.42 380.76,345.39 C383.746667,353.89 386.736667,362.393333 389.73,370.9 Z" id="Path" fill="#FEE2D4"></path>
            <path d="M380.72,345.39 C371.3,350.39 362.28,356.6 352.32,360.16 C342.87,363.54 332.5,364.88 322.42,365.87 C308.57,367.23 294.67,365.75 281.08,362.87 C268.696708,360.245322 256.857334,355.509573 246.08,348.87 C244.576237,347.853418 243.124413,346.762047 241.73,345.6 C236.560547,343.179584 232.423003,338.995948 230.06,333.8 C229.36,326.06 228.72,318.31 227.93,310.58 C226.77,299.3 225.6,288.02 224.23,276.76 C223.674738,273.661543 222.933397,270.599334 222.01,267.59 C222.08,266.02 222.15,264.45 222.21,262.87 L222.21,259.6 L225.29,256.8 C233.72,256.11 242.17,255.57 250.59,254.69 C267.73,252.88 284.81,250.48 301.98,249.09 C317.09,247.86 332.29,247.35 347.45,247.09 C366.62,246.76 385.79,247.09 404.96,246.95 C408.15,246.95 410.3,247.95 411.41,250.95 L411.41,255.61 L415.2,256.33 C414.14,262.25 413.04,268.17 412.05,274.1 C411.540153,276.820939 411.2227,279.574427 411.1,282.34 C410.94,289.34 410.6,296.45 411.05,303.46 C411.82,315.77 403.23,322.97 396.37,330.93 C391.8,336.3 386,340.62 380.72,345.39 Z M403.47,301.12 L404.31,286.32 L404.31,281.46 C404.31,274.46 404.07,267.35 404.51,260.34 C404.81,255.59 403.01,254.63 398.67,254.74 C365.97,255.56 333.27,256.06 300.58,256.92 C292.45,257.14 284.35,258.27 276.24,259.07 C264.24,260.25 252.29,261.83 240.24,262.63 C230.67,263.27 230.65,262.86 231.17,271.94 C231.17,272.26 231.17,272.59 231.17,272.94 C232.143333,281.666667 233.12,290.4 234.1,299.14 L235.22,313.84 C236.48,317.84 237.743333,321.81 239.01,325.75 C242.55,329.12 245.94,332.67 249.67,335.82 C272.61,355.26 299.41,362.95 328.96,359.82 C354.96,357.07 376.82,345.06 394.35,325.69 C398.15,321.48 400.57,316.03 403.62,311.15 C403.55,307.82 403.47,304.5 403.4,301.15 L403.47,301.12 Z" id="Shape" fill="#FBFBF9"></path>
            <path d="M222.05,267.59 C222.973397,270.599334 223.714738,273.661543 224.27,276.76 C225.64,288.02 226.81,299.3 227.97,310.58 C228.76,318.31 229.4,326.06 230.1,333.8 C220.1,326.88 212.38,317.69 205.87,307.56 C196.63,293.17 189.98,277.75 188.8,260.4 C190.65,260.25 192.66,260.5 194.34,259.87 C199.67,257.87 204.73,257.76 209.64,260.87 L213.64,263.69 C215.71,266.51 217.77,269.34 219.96,272.34 C220.7,270.7 221.38,269.15 222.05,267.59 Z" id="Path" fill="#FCE2D2"></path>
            <path d="M415.24,256.36 L411.45,255.64 L411.45,251 C414.54,249.49 415.69,247.14 415.45,243.64 C415.16,239.49 415.45,235.3 415.45,231.13 C416.36,234.73 417.2,238.36 418.22,241.93 C418.74,243.73 419.59,245.43 420.28,247.17 C421.04,249.71 421.74,252.03 418,253.05 C416.85,253.34 416.14,255.21 415.24,256.36 Z" id="Path" fill="#AAB69B"></path>
            <path d="M415.44,231.11 C415.44,235.28 415.15,239.47 415.44,243.62 C415.69,247.12 414.54,249.47 411.44,250.98 C410.33,247.98 408.18,246.98 404.99,246.98 C385.82,247.08 366.65,246.79 347.48,247.12 C332.32,247.38 317.12,247.89 302.01,249.12 C284.84,250.51 267.76,252.91 250.62,254.72 C242.2,255.6 233.75,256.14 225.32,256.83 C233.08,232.25 240.85,207.66 248.76,182.63 C257.89,184.93 266.67,187.25 275.51,189.35 C302.93,195.86 330.58,200.86 358.87,201.27 C367.04,201.39 375.32,200.5 383.36,201.54 C400.73,203.77 410.81,214.67 415.44,231.11 Z" id="Path" fill="#FDE2D4"></path>
            <polygon id="Path" fill="#93B8BF" points="213.64 263.73 209.64 260.91 222.25 259.6 222.25 262.87"></polygon>
            <path d="M234.16,299.12 C233.18,290.386667 232.203333,281.653333 231.23,272.92 C231.23,272.59 231.23,272.26 231.23,271.92 C230.71,262.84 230.73,263.25 240.3,262.61 C252.3,261.81 264.3,260.23 276.3,259.05 C284.41,258.25 292.51,257.12 300.64,256.9 C333.33,256.04 366.03,255.54 398.73,254.72 C403.07,254.61 404.87,255.57 404.57,260.32 C404.13,267.32 404.4,274.4 404.37,281.44 C402.505139,280.94584 400.601603,280.611299 398.68,280.44 C375.733333,280.366667 352.783333,280.35 329.83,280.39 C328.51,280.39 327.2,280.52 325.89,280.58 L325.89,281.06 L403.49,301.06 C403.56,304.38 403.64,307.7 403.71,311.06 C402.17,306.83 399.49,309.82 397.71,310.45 C359.71,324.04 321.13,334.07 280.29,332.58 C267.02,332.1 254,330.64 241.6,325.51 C240.89,325.22 239.92,325.6 239.07,325.67 C237.803333,321.67 236.536667,317.703333 235.27,313.77 C239.61,312.4 244.01,311.21 248.27,309.65 C262.27,304.49 276.33,299.21 290.36,293.97 C282.766231,294.11982 275.185674,294.670587 267.65,295.62 C256.49,296.86 245.32,298 234.16,299.12 Z" id="Path" fill="#BDDBDD"></path>
            <path d="M239.07,325.73 C239.92,325.66 240.89,325.28 241.6,325.57 C254,330.7 267.02,332.16 280.29,332.64 C321.13,334.13 359.73,324.1 397.71,310.51 C399.46,309.88 402.14,306.89 403.71,311.12 C400.66,316 398.24,321.45 394.44,325.66 C376.88,345 355,357 329,359.79 C299.45,362.93 272.65,355.24 249.71,335.79 C246,332.65 242.61,329.1 239.07,325.73 Z" id="Path" fill="#91C1C8"></path>
            <path d="M403.46,301.15 L325.86,281.15 L325.86,280.67 C327.17,280.61 328.48,280.48 329.8,280.48 C352.753333,280.48 375.703333,280.496667 398.65,280.53 C400.571603,280.701299 402.475139,281.03584 404.34,281.53 C404.34,283.15 404.34,284.77 404.34,286.39 L403.5,301.19 L403.46,301.15 Z" id="Path" fill="#91C0C7"></path>
            <path d="M234.16,299.12 C245.32,297.98 256.49,296.86 267.66,295.68 C275.195142,294.720556 282.775701,294.159775 290.37,294 C276.37,299.24 262.37,304.52 248.28,309.68 C244.01,311.24 239.61,312.43 235.28,313.8 L234.16,299.12 Z" id="Path" fill="#92C1C8"></path>
            <path d="M213.64,263.73 L222.25,262.87 C222.19,264.45 222.12,266.02 222.05,267.59 C221.38,269.15 220.7,270.7 219.96,272.38 C217.77,269.38 215.71,266.55 213.64,263.73 Z" id="Path" fill="#3C3947"></path>
            <path d="M403.47,301.12 L404.31,286.32 L403.47,301.12 Z" id="Path" fill="#BDDBDD"></path>
        </g>
    </g>
</svg>