<?xml version="1.0" encoding="UTF-8"?>
<svg width="24px" height="24px" viewBox="0 0 24 24" version="1.1" xmlns="http://www.w3.org/2000/svg" xmlns:xlink="http://www.w3.org/1999/xlink">
    <!-- Generator: Sketch 63.1 (92452) - https://sketch.com -->
    <title>Icon/regular/img</title>
    <desc>Created with Sketch.</desc>
    <g id="Icon/regular/img" stroke="none" stroke-width="1" fill="none" fill-rule="evenodd">
        <path d="M19.2,3 L4.8,3 C3.80588745,3 3,3.80588745 3,4.8 L3,19.2 C3,20.1941125 3.80588745,21 4.8,21 L19.2,21 C20.1941125,21 21,20.1941125 21,19.2 L21,4.8 C21,3.80588745 20.1941125,3 19.2,3 Z M4.8,4.2 L19.2,4.2 C19.5313708,4.2 19.8,4.46862915 19.8,4.8 L19.8,14.589 L17.172,12.285 C16.7553568,11.9058175 16.1186432,11.9058175 15.702,12.285 L11.766,15.735 C11.3493568,16.1141825 10.7126432,16.1141825 10.296,15.735 L9.075,14.664 C8.65835681,14.2848175 8.02164319,14.2848175 7.605,14.664 L4.2,17.649 L4.2,4.8 C4.2,4.46862915 4.46862915,4.2 4.8,4.2 Z" id="Shape" fill="#C4C9CF" fill-rule="nonzero"></path>
        <circle id="Oval" fill="#9DA5B0" fill-rule="nonzero" cx="16.5" cy="6.5" r="1.5"></circle>
    </g>
</svg>