<?xml version="1.0" encoding="UTF-8"?>
<svg width="18px" height="18px" viewBox="0 0 18 18" version="1.1" xmlns="http://www.w3.org/2000/svg" xmlns:xlink="http://www.w3.org/1999/xlink">
    <!-- Generator: Sketch 63.1 (92452) - https://sketch.com -->
    <title>noun_Question_3013475 Copy</title>
    <desc>Created with Sketch.</desc>
    <g id="Home" stroke="none" stroke-width="1" fill="none" fill-rule="evenodd">
        <g id="Version-2.0-Copy-11" transform="translate(-36.000000, -253.000000)" fill="#000000" fill-rule="nonzero">
            <g id="noun_Question_3013475-Copy" transform="translate(36.000000, 253.000000)">
                <circle id="Oval" cx="9" cy="13" r="1"></circle>
                <path d="M8.99767895,4 C7.40094823,4 6.0918503,5.21775501 6.00027491,6.74861289 C5.99474351,6.84242424 6.07341231,6.91950491 6.1705191,6.91950491 L7.78568781,6.91950491 C7.88279461,6.91950491 7.9602342,6.84242424 7.9762138,6.74921041 C8.0597994,6.27477593 8.48633178,5.91207853 8.99767895,5.91207853 C9.56925692,5.91207853 10.0338945,6.36440461 10.0338945,6.91950491 C10.0338945,7.32283397 9.78682531,7.58215962 9.31173953,8.04285105 C8.76413096,8.57524541 8.014319,9.30482288 8.014319,10.5189927 L8.014319,10.8297055 C8.014319,10.9235169 8.0929878,11 8.19009459,11 L9.80526331,11 C9.9017555,11 9.9804243,10.9235169 9.9804243,10.8297055 L9.9804243,10.5189927 C9.9804243,10.1150662 10.2281081,9.85633803 10.7019647,9.39504908 C11.2508024,8.86265472 12,8.13367478 12,6.91890738 C12.0006144,5.30917627 10.6527967,4 8.99767895,4 Z" id="Path"></path>
                <path d="M9,0 C4.02942857,0 0,4.02942857 0,9 C0,13.9705714 4.02942857,18 9,18 C13.9705714,18 18,13.9705714 18,9 C18,4.02942857 13.9705714,0 9,0 Z M9,16.0714286 C5.10107143,16.0714286 1.92857143,12.8982857 1.92857143,9 C1.92857143,5.10107143 5.10107143,1.92857143 9,1.92857143 C12.8982857,1.92857143 16.0714286,5.10107143 16.0714286,9 C16.0714286,12.8982857 12.8982857,16.0714286 9,16.0714286 Z" id="Shape"></path>
            </g>
        </g>
    </g>
</svg>