<?xml version="1.0" encoding="UTF-8"?>
<svg width="24px" height="24px" viewBox="0 0 24 24" version="1.1" xmlns="http://www.w3.org/2000/svg" xmlns:xlink="http://www.w3.org/1999/xlink">
    <!-- Generator: Sketch 63.1 (92452) - https://sketch.com -->
    <title>Icon/regular/shop</title>
    <desc>Created with Sketch.</desc>
    <g id="Icon/regular/shop" stroke="none" stroke-width="1" fill="none" fill-rule="evenodd">
        <path d="M19.2692053,11.6529978 L20.799181,6.0352316 L7.27567859,6.0352316 L6.72772969,3 L3,3 L3,4.74702157 L5.24983449,4.74702157 L6.6630704,12.5780458 L6.77936885,13.3069905 L18.6129024,13.3069905 C18.9556188,13.3069905 19.2343378,13.5830199 19.2343378,13.9221605 C19.2343378,14.261301 18.9553981,14.5371121 18.6129024,14.5371121 L7.05720521,14.5371121 L7.05720521,16.2841336 L18.6131231,16.2841336 C19.9292597,16.2841336 21,15.2243467 21,13.9221605 C21,12.8451217 20.2671211,11.9360153 19.2692053,11.6529978 Z" id="Path" fill="#C4C9CF" fill-rule="nonzero"></path>
        <path d="M9.46637079,17.1783903 C8.4015889,17.1783903 7.53541917,18.0355228 7.53541917,19.0891952 C7.53541917,20.1428675 8.4015889,21 9.46637079,21 C10.5311527,21 11.3973224,20.1428675 11.3973224,19.0891952 C11.3973224,18.0355228 10.5311527,17.1783903 9.46637079,17.1783903 Z" id="Path" fill="#9DA5B0" fill-rule="nonzero"></path>
        <path d="M16.353358,17.1783903 C15.2885761,17.1783903 14.4224064,18.0355228 14.4224064,19.0891952 C14.4224064,20.1428675 15.2885761,21 16.353358,21 C17.4181399,21 18.2843096,20.1428675 18.2843096,19.0891952 C18.2843096,18.0355228 17.4181399,17.1783903 16.353358,17.1783903 Z" id="Path" fill="#9DA5B0" fill-rule="nonzero"></path>
    </g>
</svg>