<?xml version="1.0" encoding="UTF-8"?>
<svg width="18px" height="20px" viewBox="0 0 18 20" version="1.1" xmlns="http://www.w3.org/2000/svg" xmlns:xlink="http://www.w3.org/1999/xlink">
    <!-- Generator: Sketch 63.1 (92452) - https://sketch.com -->
    <title>noun_Sort_1288489</title>
    <desc>Created with Sketch.</desc>
    <g id="Home" stroke="none" stroke-width="1" fill="none" fill-rule="evenodd">
        <g id="Version-2.0-Copy-11" transform="translate(-358.000000, -494.000000)" fill="#000000" fill-rule="nonzero">
            <g id="noun_Sort_1288489" transform="translate(358.000000, 494.000000)">
                <g id="Group">
                    <g id="Shape">
                        <path d="M9.72727273,2.59259259 L9.72727273,2.686111 C10.9815895,3.01547281 11.9090909,4.17650959 11.9090909,5.55555556 C11.9090909,6.93534685 10.9810362,8.09570174 9.72727273,8.42497519 L9.72727273,17.4074074 C9.72727273,17.8165072 9.40166164,18.1481481 9,18.1481481 C8.59833836,18.1481481 8.27272727,17.8165072 8.27272727,17.4074074 L8.27272727,8.42500011 C7.01841047,8.0956383 6.09090909,6.93460152 6.09090909,5.55555556 C6.09090909,4.17576426 7.01896378,3.01540937 8.27272727,2.68613593 L8.27272727,2.59259259 C8.27272727,2.18349278 8.59833836,1.85185185 9,1.85185185 C9.40166164,1.85185185 9.72727273,2.18349278 9.72727273,2.59259259 Z M7.54545455,5.55555556 C7.54545455,6.372249 8.19764927,7.03703704 9,7.03703704 C9.80184447,7.03703704 10.4545455,6.37276463 10.4545455,5.55555556 C10.4545455,4.73886211 9.80235073,4.07407407 9,4.07407407 C8.19815553,4.07407407 7.54545455,4.73834648 7.54545455,5.55555556 Z M2.81818182,11.5749999 L2.81818182,11.5749999 C4.07249862,11.9043617 5,13.0653985 5,14.4444444 C5,15.8242357 4.07194531,16.9845906 2.81818182,17.3138641 L2.81818182,17.4074074 C2.81818182,17.8165072 2.49257073,18.1481481 2.09090909,18.1481481 C1.68924745,18.1481481 1.36363636,17.8165072 1.36363636,17.4074074 L1.36363636,17.313889 C0.109319564,16.9845272 -0.818181818,15.8234904 -0.818181818,14.4444444 C-0.818181818,13.0646531 0.109872873,11.9042983 1.36363636,11.5750248 L1.36363636,2.59259259 C1.36363636,2.18349278 1.68924745,1.85185185 2.09090909,1.85185185 C2.49257073,1.85185185 2.81818182,2.18349278 2.81818182,2.59259259 L2.81818182,11.5749999 Z M0.636363636,14.4444444 C0.636363636,15.2611379 1.28855836,15.9259259 2.09090909,15.9259259 C2.89275356,15.9259259 3.54545455,15.2616535 3.54545455,14.4444444 C3.54545455,13.627751 2.89325982,12.962963 2.09090909,12.962963 C1.28906462,12.962963 0.636363636,13.6272354 0.636363636,14.4444444 Z M16.6363636,8.24166656 L16.6363636,8.24166656 C17.8906804,8.57102837 18.8181818,9.73206515 18.8181818,11.1111111 C18.8181818,12.4909024 17.8901271,13.6512573 16.6363636,13.9805307 L16.6363636,17.4074074 C16.6363636,17.8165072 16.3107525,18.1481481 15.9090909,18.1481481 C15.5074293,18.1481481 15.1818182,17.8165072 15.1818182,17.4074074 L15.1818182,13.9805557 C13.9275014,13.6511939 13,12.4901571 13,11.1111111 C13,9.73131981 13.9280547,8.57096493 15.1818182,8.24169148 L15.1818182,2.59259259 C15.1818182,2.18349278 15.5074293,1.85185185 15.9090909,1.85185185 C16.3107525,1.85185185 16.6363636,2.18349278 16.6363636,2.59259259 L16.6363636,8.24166656 Z M14.4545455,11.1111111 C14.4545455,11.9278046 15.1067402,12.5925926 15.9090909,12.5925926 C16.7109354,12.5925926 17.3636364,11.9283202 17.3636364,11.1111111 C17.3636364,10.2944177 16.7114416,9.62962963 15.9090909,9.62962963 C15.1072464,9.62962963 14.4545455,10.293902 14.4545455,11.1111111 Z" transform="translate(9.000000, 10.000000) rotate(90.000000) translate(-9.000000, -10.000000) "></path>
                    </g>
                </g>
            </g>
        </g>
    </g>
</svg>