<?xml version="1.0" encoding="UTF-8"?>
<svg width="24px" height="24px" viewBox="0 0 24 24" version="1.1" xmlns="http://www.w3.org/2000/svg" xmlns:xlink="http://www.w3.org/1999/xlink">
    <!-- Generator: Sketch 63.1 (92452) - https://sketch.com -->
    <title>Icon/regular/tips</title>
    <desc>Created with Sketch.</desc>
    <g id="Icon/regular/tips" stroke="none" stroke-width="1" fill="none" fill-rule="evenodd">
        <path d="M21.067078,12.6505989 L19.0534301,12.6505989 C19.0042105,12.6505989 18.9645735,12.6900181 18.9645735,12.73902 L18.9645735,13.4494374 C18.9645735,13.4982214 19.0042105,13.5378584 19.0534301,13.5378584 L21.067078,13.5378584 C21.1160799,13.5378584 21.1557169,13.4980036 21.1557169,13.4494374 L21.1557169,12.73902 C21.1557169,12.6902359 21.1158621,12.6505989 21.067078,12.6505989 Z" id="Path" fill="#9DA5B0" fill-rule="nonzero"></path>
        <path d="M4.62010889,12.6505989 L2.60624319,12.6505989 C2.55745917,12.6505989 2.51760436,12.6900181 2.51760436,12.73902 L2.51760436,13.4494374 C2.51760436,13.4982214 2.55724138,13.5378584 2.60624319,13.5378584 L4.62010889,13.5378584 C4.66932849,13.5378584 4.70896552,13.4980036 4.70896552,13.4494374 L4.70896552,12.73902 C4.70896552,12.6902359 4.66932849,12.6505989 4.62010889,12.6505989 Z" id="Path" fill="#9DA5B0" fill-rule="nonzero"></path>
        <path d="M19.1954265,9.60421053 L20.9396733,8.59716878 C20.9821416,8.57255898 20.996951,8.51811252 20.9721234,8.47586207 L20.6169147,7.86083485 C20.5925227,7.81836661 20.538294,7.80377495 20.495608,7.82838475 L18.7513612,8.8354265 C18.7091107,8.8600363 18.6945191,8.91426497 18.7189111,8.95673321 L19.0741198,9.57154265 C19.0989474,9.61401089 19.1533938,9.62838475 19.1954265,9.60421053 Z" id="Path" fill="#9DA5B0" fill-rule="nonzero"></path>
        <path d="M17.8688929,4.13582577 L17.2540835,3.78083485 C17.2116152,3.75622505 17.1571688,3.7708167 17.1323412,3.81328494 L16.1255172,5.55753176 C16.1009074,5.6 16.1157169,5.65422868 16.1577495,5.67883848 L16.7727768,6.0338294 C16.8148094,6.0584392 16.8692559,6.04384755 16.8940835,6.00116152 L17.901343,4.25713249 C17.9259528,4.21466425 17.9113612,4.16043557 17.8688929,4.13582577 Z" id="Path" fill="#9DA5B0" fill-rule="nonzero"></path>
        <path d="M11.4814519,4.19157895 L12.1918693,4.19157895 C12.2408711,4.19157895 12.2802904,4.15172414 12.2802904,4.10272232 L12.2802904,2.08863884 C12.2802904,2.03985481 12.2406534,2 12.1918693,2 L11.4814519,2 C11.4326679,2 11.3930309,2.03985481 11.3930309,2.08863884 L11.3930309,4.10294011 C11.3930309,4.15194192 11.4324501,4.19157895 11.4814519,4.19157895 Z" id="Path" fill="#9DA5B0" fill-rule="nonzero"></path>
        <path d="M6.90032668,6.03404719 L7.5153539,5.67905626 C7.55738657,5.65444646 7.57219601,5.60021779 7.54758621,5.55774955 L6.54076225,3.81350272 C6.51593466,3.77103448 6.46170599,3.75666062 6.41923775,3.78105263 L5.80442831,4.13604356 C5.76196007,4.16065336 5.74758621,4.21488203 5.77197822,4.25735027 L6.77901996,6.0015971 C6.80362976,6.04384755 6.85807623,6.0584392 6.90032668,6.03404719 Z" id="Path" fill="#9DA5B0" fill-rule="nonzero"></path>
        <path d="M4.92174229,8.8354265 L3.17749546,7.82838475 C3.13480944,7.80377495 3.08058076,7.81836661 3.05618875,7.86083485 L2.70119782,8.47586207 C2.67637024,8.51833031 2.69117967,8.57255898 2.73364791,8.59716878 L4.47789474,9.60421053 C4.5199274,9.62860254 4.57437387,9.61401089 4.59898367,9.57154265 L4.95419238,8.95673321 C4.97880218,8.91426497 4.96421053,8.85981851 4.92174229,8.8354265 Z" id="Path" fill="#9DA5B0" fill-rule="nonzero"></path>
        <path d="M11.8366606,5.40333938 C8.65067151,5.40333938 6.0677314,7.98627949 6.0677314,11.1722686 C6.0677314,14.252196 9.04529946,15.9391652 9.24370236,17.6516152 C9.25502722,17.7489655 9.33343013,17.8288929 9.43165154,17.8286756 L14.2416697,17.8286756 C14.3398911,17.8286756 14.418294,17.7491833 14.4296189,17.6516152 C14.627804,15.9391652 17.6053721,14.252196 17.6053721,11.1722686 C17.6053721,7.98606171 15.0226497,5.40333938 11.8366606,5.40333938 Z" id="Path" fill="#C4C9CF" fill-rule="nonzero"></path>
        <path d="M14.2416697,18.4942287 L9.43165154,18.4942287 C9.33343013,18.4942287 9.25393829,18.5737205 9.25393829,18.6717241 L9.25393829,19.4261343 C9.25393829,19.5241379 9.33343013,19.603412 9.43165154,19.603412 L14.2416697,19.603412 C14.3398911,19.603412 14.4193829,19.5241379 14.4193829,19.4261343 L14.4193829,18.6717241 C14.4193829,18.5739383 14.3398911,18.4942287 14.2416697,18.4942287 Z" id="Path" fill="#C4C9CF" fill-rule="nonzero"></path>
        <path d="M9.43165154,20.2691833 C9.33343013,20.2691833 9.31208711,20.323412 9.38352087,20.3902722 L10.5506352,21.479637 C10.6225045,21.5464973 10.7601452,21.600726 10.8581488,21.600726 L12.8151724,21.600726 C12.913176,21.600726 13.0508167,21.5464973 13.1224682,21.4794192 L14.2895826,20.3900544 C14.3607985,20.3231942 14.3394555,20.2689655 14.2412341,20.2689655 L9.43165154,20.2689655 L9.43165154,20.2691833 Z" id="Path" fill="#C4C9CF" fill-rule="nonzero"></path>
    </g>
</svg>