<?xml version="1.0" encoding="UTF-8"?>
<svg xmlns="http://www.w3.org/2000/svg" xmlns:xlink="http://www.w3.org/1999/xlink" width="48px" height="48px" viewBox="0 0 48 48" version="1.1">
<g id="surface1">
<path style=" stroke:none;fill-rule:evenodd;fill:rgb(71.764706%,10.980392%,10.980392%);fill-opacity:1;" d="M 48 24 C 48 37.253906 37.253906 48 24 48 C 10.746094 48 0 37.253906 0 24 C 0 10.746094 10.746094 0 24 0 C 37.253906 0 48 10.746094 48 24 Z M 48 24 "/>
<path style=" stroke:none;fill-rule:nonzero;fill:rgb(100%,100%,100%);fill-opacity:1;" d="M 26.347656 27.695312 C 25.878906 23.355469 32.679688 22.828125 32.679688 18.238281 C 32.679688 14.089844 29.375 12 24.847656 12 C 21.511719 12 18.765625 13.496094 16.800781 15.804688 L 19.359375 18.175781 C 20.792969 16.554688 22.414062 15.710938 24.351562 15.710938 C 26.785156 15.710938 28.28125 16.773438 28.28125 18.644531 C 28.28125 21.671875 21.667969 22.796875 22.324219 27.695312 Z M 24.351562 35.992188 C 26.222656 35.992188 27.59375 34.714844 27.59375 32.902344 C 27.59375 31.09375 26.222656 29.847656 24.351562 29.847656 C 22.476562 29.847656 21.105469 31.09375 21.105469 32.902344 C 21.105469 34.714844 22.476562 35.992188 24.351562 35.992188 Z M 24.351562 35.992188 "/>
</g>
</svg>
