<?xml version="1.0" encoding="UTF-8"?>
<svg width="24px" height="24px" viewBox="0 0 24 24" version="1.1" xmlns="http://www.w3.org/2000/svg" xmlns:xlink="http://www.w3.org/1999/xlink">
    <!-- Generator: Sketch 63.1 (92452) - https://sketch.com -->
    <title>Icon/regular/global</title>
    <desc>Created with Sketch.</desc>
    <g id="Icon/regular/global" stroke="none" stroke-width="1" fill="none" fill-rule="evenodd">
        <path d="M9.23498371,2.00003732 C11.8088381,1.98975796 14.2983211,4.10395911 13.4386893,7.22277336 C12.9154813,9.12160817 9.16493964,13.4549855 9.16493964,13.4549855 C9.16493964,13.4549855 5.41413263,9.12160817 4.89092463,7.22277336 C4.03712984,4.12485094 6.67864039,2.01064978 9.23498371,2.00003732 Z M9.19783913,3.59610721 C7.66482909,3.59610721 6.42154681,4.80422215 6.42154681,6.29476363 C6.42154681,7.78504718 7.66482909,8.99342005 9.19783913,8.99342005 C10.7311145,8.99342005 11.9738661,7.78504718 11.9738661,6.29476363 C11.9738661,4.80422215 10.7311145,3.59610721 9.19783913,3.59610721 Z" id="Combined-Shape" fill="#9DA5B0"></path>
        <path d="M14.1425792,4.75237948 C18.0785785,5.68657938 21,9.13708359 21,13.2507098 C21,18.0826538 16.9703433,22 12.0001327,22 C7.02992203,22 3,18.0826538 3,13.2507098 C3,11.413003 3.5837006,9.70735305 4.5799714,8.29960511 C4.7394278,8.61453003 4.9349675,8.95189432 5.15252863,9.29957557 C4.62746341,10.15743 4.26848754,11.1225808 4.11778665,12.1527283 C5.70943207,11.6874338 6.03789632,11.0936933 6.43269018,11.3237613 C6.90097726,11.5971605 7.27587223,12.7129388 6.54969562,13.1003403 C5.82351901,13.4874838 6.50273425,14.60352 6.50273425,14.60352 C6.50273425,14.60352 7.20556284,15.5372041 6.85428121,15.8562558 C6.67492593,16.0187477 5.86145955,16.5993341 5.10768981,17.1288517 C6.48548855,19.4383011 9.05615907,20.9915181 12.0001327,20.9915181 C12.6077119,20.9915181 13.1991068,20.9247158 13.7676842,20.7996228 C13.1845142,20.227032 12.5493419,19.5105198 12.6809398,19.2170025 C12.9149507,18.6931593 13.8992822,17.5198641 13.8523208,16.9849302 C13.8056248,16.4492225 12.5872824,16.4149187 12.1067907,16.9160645 C11.6265643,17.4166946 9.91632151,17.5193482 9.95160886,17.0981587 C9.9866309,16.6769692 10.6897248,15.7995125 10.7717082,15.2986246 C10.8528957,14.8018634 9.55310054,15.0213565 9.00548325,14.8807881 C10.1365358,13.1741065 13.2757838,10.4573954 14.1181699,7.39919322 C14.3564259,6.53618028 14.3895907,5.61719788 14.1425792,4.75237948 Z M17.0212844,7.24392311 L15.1773212,9.59954091 C13.3285822,11.961091 16.3556004,9.98823204 16.499403,11.1548213 C16.5699777,11.724059 16.0308506,13.4098488 16.9443421,13.5922009 C17.8580988,13.774553 17.9987176,12.0206714 18.7018115,12.2940706 C18.9883555,12.4054936 19.4776027,12.6796666 19.9565025,12.9657041 C19.870274,10.6575442 18.7447931,8.60730816 17.0212844,7.24392311 Z" id="Combined-Shape" fill="#C4C9CF"></path>
    </g>
</svg>